<svg width="56" height="36" viewBox="0 0 56 36" fill="black" xmlns="http://www.w3.org/2000/svg">
<path d="M32.5406 19.5474C33.7668 24.0797 34.9912 28.0785 36.1568 32.8255L35.606 18.0026L32.5406 19.5474Z" fill="white"/>
<path d="M34.3755 11.1098L33.7105 0C16.7643 15.3304 0 36 0 36C24.8746 20.4566 55.4366 8.43931 55.4366 8.43931C23.7835 19.1751 17.9749 22.1123 17.9749 22.1123C27.4758 10.3617 30.5031 7.4764 30.5031 7.4764C30.5031 7.4764 30.8668 10.0395 31.7137 14.5268C31.7137 14.5268 49.3855 8.49127 54.6503 6.78193C54.5897 6.72998 34.8605 11.0025 34.3755 11.1098Z" fill="white"/>
</svg>
