<svg width="41" height="41" viewBox="0 0 41 41" fill="none" xmlns="http://www.w3.org/2000/svg">
<rect x="0.38739" y="0.552734" width="39.9667" height="39.9667" rx="8.32639" fill="#282C35"/>
<path d="M28.6967 16.8308C28.6967 17.3804 28.2471 17.83 27.6976 17.83H13.0431C12.4936 17.83 12.0439 17.3804 12.0439 16.8308V16.8225C12.0439 14.9157 13.5843 13.3754 15.4911 13.3754H25.2413C27.148 13.3754 28.6967 14.9241 28.6967 16.8308Z" fill="#1FCB4F"/>
<path d="M12.0439 20.0781V24.2496C12.0439 26.1563 13.5843 27.6967 15.4911 27.6967H25.2413C27.148 27.6967 28.6967 26.148 28.6967 24.2413V20.0781C28.6967 19.5285 28.2471 19.0789 27.6976 19.0789H13.0431C12.4936 19.0789 12.0439 19.5285 12.0439 20.0781ZM17.0398 24.9074H15.3745C15.0331 24.9074 14.75 24.6243 14.75 24.2829C14.75 23.9415 15.0331 23.6584 15.3745 23.6584H17.0398C17.3812 23.6584 17.6643 23.9415 17.6643 24.2829C17.6643 24.6243 17.3812 24.9074 17.0398 24.9074ZM22.4519 24.9074H19.1214C18.78 24.9074 18.4969 24.6243 18.4969 24.2829C18.4969 23.9415 18.78 23.6584 19.1214 23.6584H22.4519C22.7933 23.6584 23.0764 23.9415 23.0764 24.2829C23.0764 24.6243 22.7933 24.9074 22.4519 24.9074Z" fill="#1FCB4F"/>
</svg>
